<svg width="250" height="250" viewBox="0 0 250 250" fill="none" xmlns="http://www.w3.org/2000/svg">
<path d="M54.3149 168.604C58.232 175.702 63.7136 185.143 68.7228 191.397M68.7228 191.397C69.2997 192.118 73.188 186.383 73.345 186.103C76.7927 179.974 79.3326 173.582 81.7814 167.012M68.7228 191.397C56.4203 149.096 73.1256 107.808 101.791 94.9736C104.632 93.7016 107.726 92.3201 110.929 91.2199M110.929 91.2199C116.03 89.4679 121.409 88.4292 126.489 89.6821C131.177 90.8387 136.796 94.3201 138.154 99.1862C140.689 108.276 130.469 115.502 122.008 112.163C114.573 109.229 108.942 98.8735 110.929 91.2199ZM110.929 91.2199C110.971 91.0585 111.016 90.8983 111.065 90.7393C122.831 52.3768 170.006 51.7407 195.579 72.3365" stroke="#A6D8D2" stroke-width="5" stroke-miterlimit="1.5" stroke-linecap="round" stroke-linejoin="round"/>
</svg>
